<svg width="1440" height="1024" viewBox="0 0 1440 1024" fill="none" xmlns="http://www.w3.org/2000/svg">
<g clip-path="url(#clip0_1_11)">
<rect width="1440" height="1024" fill="#C09061"/>
<path opacity="0.2" fill-rule="evenodd" clip-rule="evenodd" d="M122.328 40.8413C122.129 47.2865 119.867 54.1228 115.2 58.9822C109.927 64.4733 100.975 68.0556 86.698 64.7567L86.533 64.7186L86.3648 64.6982C72.2674 62.9901 63.3014 66.0261 55.9262 71.6478C52.3625 74.3642 49.2614 77.6156 46.24 80.9037C45.7457 81.4416 45.2534 81.9805 44.7606 82.5202L44.76 82.5208C43.6272 83.7611 42.4911 85.0051 41.3188 86.2487C37.6934 70.0122 46.2744 49.0903 65.915 36.3586C88.0134 22.0335 112.098 25.8649 122.328 40.8413ZM128.244 37.052C115.616 17.6912 86.7797 14.5084 62.4926 30.2522C37.3629 46.5422 26.6192 76.9261 38.4958 98.1165C50.3724 119.307 80.3719 123.28 105.502 106.99C130.631 90.6996 141.375 60.3157 129.498 39.1253C129.374 38.9035 129.248 38.6836 129.12 38.4656C129.103 37.9593 129.076 37.4575 129.039 36.9608L128.244 37.052ZM126.959 52.413C125.459 56.6295 123.145 60.6518 119.893 64.0376C112.56 71.673 101.079 75.4456 85.2282 71.8284C72.6938 70.3407 65.5433 73.058 59.7885 77.4445C56.7746 79.7418 54.0478 82.5716 51.0434 85.8411C50.5772 86.3485 50.1041 86.8668 49.6228 87.3939L49.6216 87.3952L49.6215 87.3954C47.8504 89.3353 45.9696 91.3954 43.9207 93.4752C44.0657 93.7557 44.2153 94.0336 44.3696 94.3089C53.7216 110.995 78.9851 115.854 102.079 100.883C121.152 88.5196 129.795 68.4326 126.959 52.413Z" fill="black"/>
<path opacity="0.2" fill-rule="evenodd" clip-rule="evenodd" d="M231.94 104.326C237.908 104.84 244.232 107.605 248.6 112.978C253.54 119.055 256.387 128.984 252.599 144.15L252.555 144.323L252.529 144.498C250.23 159.53 252.597 169.226 257.384 177.332C259.707 181.266 262.55 184.741 265.45 188.153C265.923 188.71 266.398 189.265 266.874 189.822C268.039 191.184 269.21 192.553 270.379 193.97C264.296 195.16 257.587 194.182 250.859 191.001C241.129 186.401 231.779 177.324 225.466 164.646C219.153 151.967 217.311 138.567 219.144 127.307C220.797 117.154 225.331 109.108 231.94 104.326ZM229.209 97.7592C210.458 110.272 205.976 141.179 219.4 168.139C233.252 195.957 260.922 209.039 281.203 197.359C301.485 185.679 306.697 153.66 292.846 125.841C278.994 98.0233 251.324 84.9409 231.043 96.621C230.792 96.7657 230.543 96.9135 230.296 97.0644C229.933 97.0622 229.571 97.0667 229.212 97.0779L229.209 97.7592ZM242.907 99.829C246.95 101.65 250.754 104.408 253.847 108.211C260.457 116.342 263.402 128.734 259.237 145.577C257.214 158.99 259.371 166.896 263.212 173.401C265.211 176.787 267.719 179.88 270.603 183.273C271.052 183.802 271.511 184.338 271.977 184.882C273.725 186.927 275.58 189.094 277.441 191.451C277.656 191.335 277.87 191.216 278.083 191.093C285.897 186.593 291.27 177.928 293.102 166.673C294.935 155.414 293.093 142.013 286.78 129.335C280.467 116.657 271.117 107.58 261.387 102.98C255.04 99.9786 248.71 98.9385 242.907 99.829Z" fill="black"/>
<g opacity="0.2">
<path d="M118.088 238.975C105.508 255.356 81.4519 258.875 64.3389 246.72C47.226 234.565 43.6488 211.419 56.2285 195.038C59.7136 190.5 62.1709 187.313 65.0448 184.555C67.851 181.861 71.131 179.511 76.2467 176.897C86.1955 171.813 102.594 165.959 134.864 154.863C133.149 188.049 132.158 204.854 130.076 215.448C129.006 220.891 127.672 224.544 125.854 227.868C123.991 231.276 121.574 234.436 118.088 238.975Z" stroke="black" stroke-width="7"/>
<path d="M113.195 183.656L64.2949 245.672" stroke="black" stroke-width="4"/>
<path d="M98.8518 201.228L123.445 202.367" stroke="black" stroke-width="4"/>
<path d="M98.8518 201.228L90.4864 178.957" stroke="black" stroke-width="4"/>
<path d="M92.3606 209.68L122.997 215.111" stroke="black" stroke-width="4"/>
<path d="M91.8111 209.29L77.4031 182.727" stroke="black" stroke-width="4"/>
<path d="M86.0128 219.051L119.396 226.433" stroke="black" stroke-width="4"/>
<path d="M84.9142 218.271L67.7597 189.757" stroke="black" stroke-width="4"/>
<path d="M79.1159 228.032L114.696 236.974" stroke="black" stroke-width="4"/>
<path d="M78.0171 227.251L58.6653 197.177" stroke="black" stroke-width="4"/>
<path d="M62.8624 245.879C61.7156 253.212 55.4138 269.593 49.0975 263.803" stroke="black" stroke-width="7"/>
</g>
<path opacity="0.2" fill-rule="evenodd" clip-rule="evenodd" d="M175.905 343.766C173.107 349.473 168.319 354.521 162.223 356.689C155.343 359.136 145.89 358.219 134.363 348.568L134.229 348.456L134.085 348.358C122.073 340.222 112.732 338.742 103.755 340.366C99.4285 341.149 95.3073 342.632 91.257 344.18C90.5931 344.434 89.931 344.69 89.2683 344.945L89.2681 344.945C87.7953 345.514 86.3197 346.083 84.8153 346.637C88.0697 330.109 104.384 315.329 127.018 313.069C152.493 310.526 172.812 325.156 175.905 343.766ZM182.862 342.88C179.27 319.587 154.617 303.28 126.416 306.095C97.1998 309.012 75.2395 331.349 77.3662 355.985C79.4928 380.621 104.901 398.228 134.117 395.311C163.333 392.394 185.294 370.058 183.167 345.422C183.147 345.192 183.125 344.963 183.101 344.734C183.317 344.215 183.518 343.696 183.706 343.177L182.862 342.88ZM175.373 356.322C172.354 359.323 168.705 361.79 164.484 363.291C154.704 366.768 142.785 364.753 129.977 354.086C119.3 346.891 111.803 346.015 104.909 347.263C101.285 347.919 97.6995 349.186 93.672 350.725C93.0475 350.964 92.4119 351.209 91.7653 351.459L91.7652 351.459C89.4138 352.367 86.9149 353.332 84.2593 354.239C84.2772 354.589 84.3013 354.939 84.3315 355.289C86.033 375 106.977 390.987 133.515 388.337C155.439 386.148 171.433 372.214 175.373 356.322Z" fill="black"/>
<path opacity="0.2" fill-rule="evenodd" clip-rule="evenodd" d="M248.945 451.955C254.109 455.197 258.716 460.656 260.492 467.593C262.5 475.444 261.02 485.76 251.475 497.647L251.367 497.781L251.273 497.925C243.131 510.377 241.357 520.184 242.385 529.675C242.884 534.29 244.036 538.737 245.268 543.166C245.469 543.888 245.672 544.609 245.875 545.332L245.875 545.333L245.875 545.333C246.383 547.14 246.894 548.957 247.383 550.819C241.535 549.042 235.957 545.069 231.206 539.085C224.286 530.369 219.512 517.77 218.95 503.328C218.389 488.886 222.17 475.902 228.389 466.596C233.97 458.246 241.224 453.193 248.945 451.955ZM249.337 444.843C227.347 447.282 210.769 473.046 211.957 503.642C213.183 535.17 232.81 559.891 255.796 558.858C278.782 557.825 296.423 531.429 295.198 499.901C293.973 468.373 274.346 443.652 251.36 444.685C251.059 444.699 250.759 444.716 250.46 444.739C250.173 444.589 249.885 444.445 249.597 444.306L249.337 444.843ZM260.683 453.019C263.652 456.579 266.011 460.89 267.272 465.818C269.919 476.165 267.59 488.657 257.03 501.875C249.778 513.018 248.509 521.178 249.342 528.879C249.775 532.877 250.786 536.847 252.011 541.251C252.202 541.938 252.398 542.635 252.598 543.344C253.352 546.025 254.152 548.867 254.879 551.884C255.094 551.88 255.309 551.873 255.524 551.864C264.237 551.472 272.543 546.26 278.766 536.948C284.986 527.641 288.766 514.657 288.205 500.215C287.644 485.773 282.869 473.174 275.949 464.458C271.445 458.785 266.199 454.92 260.683 453.019Z" fill="black"/>
<g opacity="0.2">
<path d="M92.1374 520.148C74.4209 528.9 51.2735 521.027 40.6468 501.841C30.0201 482.655 36.3739 460.209 54.0904 451.458C59.0692 448.999 62.5472 447.29 66.2223 446.159C69.8029 445.057 73.6788 444.476 79.3269 444.514C90.3546 444.589 107.536 446.997 141.26 452.124C126.219 481.36 118.514 496.072 112.347 504.649C109.192 509.038 106.53 511.682 103.579 513.804C100.547 515.984 97.1181 517.688 92.1374 520.148Z" stroke="black" stroke-width="7"/>
<path d="M110.045 467.947L40.9349 500.924" stroke="black" stroke-width="4"/>
<path d="M90.0242 477.063L111.71 489.59" stroke="black" stroke-width="4"/>
<path d="M90.0242 477.063L91.4961 453.096" stroke="black" stroke-width="4"/>
<path d="M80.7612 481.638L106.153 500.856" stroke="black" stroke-width="4"/>
<path d="M80.4244 481.03L78.1904 450.372" stroke="black" stroke-width="4"/>
<path d="M71.2559 487.108L98.3322 509.368" stroke="black" stroke-width="4"/>
<path d="M70.5821 485.892L66.6636 452.193" stroke="black" stroke-width="4"/>
<path d="M61.414 491.97L89.8379 516.662" stroke="black" stroke-width="4"/>
<path d="M60.7402 490.753L55.4741 454.622" stroke="black" stroke-width="4"/>
<path d="M39.5612 500.441C35.5635 506.507 23.2652 518.311 19.9184 510.143" stroke="black" stroke-width="7"/>
</g>
<g opacity="0.2">
<path d="M346.179 342.889C347.689 364.289 332.491 384.67 312.517 388.632C292.543 392.595 274.927 378.724 273.417 357.324C272.606 345.832 272.232 340.402 276.16 329.219C280.05 318.144 288.076 301.727 304.114 269.792C324.197 294.889 334.297 307.717 339.623 316.898C342.367 321.628 343.77 325.276 344.609 329.055C345.469 332.923 345.765 337.023 346.179 342.889Z" stroke="black" stroke-width="7"/>
<path d="M307.06 306.659L311.802 387.811" stroke="black" stroke-width="4"/>
<path d="M308.052 330.017L326.509 312.5" stroke="black" stroke-width="4"/>
<path d="M308.052 330.017L287.666 320.206" stroke="black" stroke-width="4"/>
<path d="M308.823 340.948L334.402 322.018" stroke="black" stroke-width="4"/>
<path d="M308.176 341.076L280.669 332.678" stroke="black" stroke-width="4"/>
<path d="M310.29 352.434L339.106 332.862" stroke="black" stroke-width="4"/>
<path d="M308.996 352.691L278.252 344.935" stroke="black" stroke-width="4"/>
<path d="M311.11 364.048L342.515 343.963" stroke="black" stroke-width="4"/>
<path d="M309.815 364.305L276.482 357.063" stroke="black" stroke-width="4"/>
<path d="M310.904 389.029C314.804 395.168 320.824 411.671 312.539 412.209" stroke="black" stroke-width="7"/>
</g>
<path opacity="0.2" fill-rule="evenodd" clip-rule="evenodd" d="M383.153 338.777C381.716 332.522 382.157 325.239 385.468 319.137C389.211 312.236 396.997 306.179 411.571 305.21L411.738 305.199L411.903 305.17C425.895 302.723 433.724 297.209 439.377 289.704C442.114 286.069 444.277 282.052 446.361 278.008C446.701 277.348 447.04 276.686 447.379 276.024C448.181 274.455 448.987 272.881 449.831 271.295C457.222 285.747 454.334 308.322 438.49 326.432C420.666 346.806 396.597 349.922 383.153 338.777ZM378.324 343.894C395.336 358.945 423.952 353.653 443.411 331.41C463.517 308.428 466.234 276.053 449.478 259.098C432.722 242.144 402.84 247.03 382.733 270.012C362.627 292.995 359.91 325.37 376.666 342.324C376.859 342.519 377.054 342.712 377.25 342.901C377.378 343.325 377.513 343.744 377.654 344.157L378.324 343.894ZM375.748 328.963C376.103 324.375 377.322 319.737 379.64 315.464C384.74 306.064 394.781 299.107 410.953 297.987C423.408 295.778 429.652 291.072 434.13 285.127C436.466 282.025 438.388 278.495 440.46 274.474C440.782 273.849 441.108 273.212 441.44 272.564L441.44 272.563C442.672 270.153 443.98 267.597 445.448 264.972C445.258 264.767 445.065 264.565 444.869 264.367C431.895 251.24 406.342 253.629 387.654 274.991C372.23 292.621 369.084 314.483 375.748 328.963Z" fill="black"/>
<path opacity="0.2" fill-rule="evenodd" clip-rule="evenodd" d="M530.466 210.221C531.721 203.913 535.063 197.638 540.418 193.759C546.465 189.379 555.828 187.528 569.347 193.472L569.504 193.541L569.667 193.593C583.271 197.938 592.617 196.647 600.825 192.49C604.786 190.484 608.376 187.863 611.887 185.197C612.462 184.76 613.036 184.322 613.609 183.883L613.609 183.883C614.905 182.893 616.204 181.9 617.536 180.915C618.507 197.686 606.573 216.659 585.258 225.444C561.272 235.33 538.105 227.082 530.466 210.221ZM524.006 212.974C533.297 234.386 561.145 242.944 587.607 232.038C615.006 220.746 630.543 192.862 622.31 169.758C614.077 146.655 585.191 137.08 557.793 148.372C530.394 159.665 514.857 187.548 523.091 210.652C523.172 210.88 523.255 211.107 523.34 211.332C523.268 211.866 523.208 212.396 523.161 212.924L524.006 212.974ZM527.812 197.968C529.97 194.154 532.884 190.678 536.603 187.984C545.11 181.822 557.062 180.289 572.074 186.842C584.166 190.671 591.625 189.341 597.977 186.125C601.31 184.437 604.45 182.171 607.941 179.519C608.483 179.108 609.033 178.687 609.593 178.258C611.641 176.693 613.816 175.029 616.158 173.377C616.057 173.058 615.95 172.741 615.838 172.426C609.299 154.076 585.166 144.652 560.143 154.966C539.472 163.486 527.623 181.586 527.812 197.968Z" fill="black"/>
<g opacity="0.2">
<path d="M597.791 344.039C602.902 364.737 591.455 387.782 572.443 395.624C553.43 403.466 533.771 393.251 528.66 372.553C527.256 366.868 526.271 362.848 525.855 358.711C525.448 354.665 525.58 350.409 526.582 344.402C528.524 332.746 533.63 315.017 543.983 280.426C568.02 301.177 580.138 311.81 586.937 319.792C590.437 323.901 592.434 327.208 593.899 330.754C595.4 334.384 596.387 338.352 597.791 344.039Z" stroke="black" stroke-width="7"/>
<path d="M553.15 316.119L571.604 394.971" stroke="black" stroke-width="4"/>
<path d="M558.095 338.888L573.264 318.038" stroke="black" stroke-width="4"/>
<path d="M558.095 338.888L536.385 333.249" stroke="black" stroke-width="4"/>
<path d="M560.711 349.483L582.641 325.844" stroke="black" stroke-width="4"/>
<path d="M560.096 349.736L531.625 346.887" stroke="black" stroke-width="4"/>
<path d="M564.105 360.487L589.109 335.581" stroke="black" stroke-width="4"/>
<path d="M562.876 360.994L531.332 359.412" stroke="black" stroke-width="4"/>
<path d="M566.885 371.745L594.347 345.824" stroke="black" stroke-width="4"/>
<path d="M565.656 372.252L531.653 371.683" stroke="black" stroke-width="4"/>
<path d="M570.927 396.345C575.806 401.614 584.529 416.656 576.475 418.813" stroke="black" stroke-width="7"/>
</g>
<g opacity="0.2">
<path d="M727.923 124.873C720.678 144.812 698.791 156.126 679.153 150.374C659.514 144.623 649.269 123.899 656.514 103.96C658.505 98.4815 659.918 94.6135 661.855 91.0119C663.748 87.4906 666.192 84.1429 670.299 79.9336C678.267 71.7666 692.12 60.7109 719.464 39.3922C727.453 71.3927 731.386 87.6641 732.486 98.4205C733.052 103.959 732.846 107.894 732.081 111.684C731.298 115.564 729.915 119.393 727.923 124.873Z" stroke="black" stroke-width="7"/>
<path d="M707.261 73.9862L678.829 149.33" stroke="black" stroke-width="4"/>
<path d="M698.741 95.4979L722.435 88.3151" stroke="black" stroke-width="4"/>
<path d="M698.741 95.4979L684.324 77.1539" stroke="black" stroke-width="4"/>
<path d="M695.031 105.708L725.711 100.572" stroke="black" stroke-width="4"/>
<path d="M694.396 105.522L672.992 85.1323" stroke="black" stroke-width="4"/>
<path d="M691.724 116.743L725.58 112.537" stroke="black" stroke-width="4"/>
<path d="M690.454 116.371L665.874 95.051" stroke="black" stroke-width="4"/>
<path d="M687.782 127.592L724.179 124.13" stroke="black" stroke-width="4"/>
<path d="M686.512 127.22L659.391 105.156" stroke="black" stroke-width="4"/>
<path d="M677.529 150.008C678.57 157.359 677.343 175.037 669.661 171.66" stroke="black" stroke-width="7"/>
</g>
<path opacity="0.2" fill-rule="evenodd" clip-rule="evenodd" d="M761.054 504.564C766.63 502.195 773.372 501.703 779.392 504.385C786.196 507.417 792.815 514.847 795.674 530.246L795.707 530.424L795.757 530.598C799.902 545.186 806.051 552.816 813.765 557.85C817.495 560.285 821.498 562.051 825.504 563.726C826.158 564 826.812 564.27 827.467 564.542L827.472 564.544C828.993 565.174 830.518 565.806 832.059 566.475C819.672 576.452 798.429 576.332 779.717 561.978C758.664 545.827 752.411 520.553 761.054 504.564ZM755.529 500.2C744.01 520.357 752.753 550.094 775.848 567.811C799.735 586.136 829.93 584.662 843.29 564.519C856.65 544.377 848.116 513.193 824.229 494.868C800.342 476.543 770.147 478.017 756.787 498.159C756.643 498.376 756.502 498.594 756.363 498.813C755.952 499.024 755.548 499.243 755.151 499.47L755.529 500.2ZM769.089 495.383C773.305 495.175 777.68 495.857 781.88 497.729C791.288 501.921 799.065 511.732 802.279 528.813C805.992 541.777 811.158 547.766 817.202 551.711C820.364 553.775 823.866 555.342 827.85 557.008C828.469 557.266 829.1 557.528 829.742 557.793C832.108 558.773 834.621 559.814 837.217 561.013C837.394 560.765 837.567 560.514 837.736 560.259C848.209 544.468 842.38 517.594 820.36 500.701C802.176 486.752 781.603 486.245 769.089 495.383Z" fill="black"/>
<g opacity="0.2">
<path d="M714.185 679.615C709.623 700.496 689.421 714.996 669.264 712.291C649.106 709.586 636.212 690.645 640.774 669.764C643.225 658.545 644.392 653.25 651.273 643.865C658.088 634.571 670.345 621.526 694.595 596.287C706.698 626.729 712.726 642.234 715.228 652.714C716.516 658.114 716.83 662.045 716.57 665.919C716.304 669.884 715.437 673.888 714.185 679.615Z" stroke="black" stroke-width="7"/>
<path d="M687.061 632.379L668.811 711.287" stroke="black" stroke-width="4"/>
<path d="M681.452 654.969L703.964 644.259" stroke="black" stroke-width="4"/>
<path d="M681.452 654.969L664.77 639" stroke="black" stroke-width="4"/>
<path d="M679.12 665.641L708.818 655.895" stroke="black" stroke-width="4"/>
<path d="M678.467 665.554L654.599 648.62" stroke="black" stroke-width="4"/>
<path d="M677.296 677.068L710.26 667.76" stroke="black" stroke-width="4"/>
<path d="M675.99 676.893L648.855 659.52" stroke="black" stroke-width="4"/>
<path d="M674.818 688.407L710.395 679.45" stroke="black" stroke-width="4"/>
<path d="M673.512 688.232L643.765 670.509" stroke="black" stroke-width="4"/>
<path d="M667.612 712.156C669.609 719.275 670.716 736.962 662.667 734.786" stroke="black" stroke-width="7"/>
</g>
<path opacity="0.4" fill-rule="evenodd" clip-rule="evenodd" d="M578.464 641.387C578.324 647.834 576.124 654.695 571.499 659.604C566.273 665.152 557.352 668.827 543.046 665.677L542.88 665.641L542.712 665.622C528.6 664.061 519.664 667.19 512.341 672.887C508.802 675.64 505.731 678.923 502.739 682.242C502.25 682.785 501.762 683.329 501.274 683.874C500.151 685.128 499.025 686.385 497.863 687.642C494.096 671.45 502.484 650.44 522.015 637.501C543.989 622.943 568.103 626.529 578.464 641.387ZM584.346 637.545C571.545 618.314 542.681 615.431 518.535 631.427C493.553 647.978 483.083 678.472 495.15 699.538C507.217 720.604 537.25 724.264 562.232 707.713C587.214 691.163 597.684 660.668 585.618 639.603C585.491 639.381 585.362 639.162 585.232 638.945C585.211 638.441 585.179 637.941 585.138 637.446L584.346 637.545ZM583.201 652.911C581.739 657.146 579.46 661.195 576.237 664.616C568.975 672.325 557.531 676.218 541.648 672.765C529.1 671.408 521.973 674.2 516.256 678.647C513.263 680.976 510.561 683.834 507.586 687.135C507.124 687.648 506.656 688.171 506.179 688.704C504.424 690.663 502.561 692.743 500.53 694.845C500.678 695.123 500.829 695.399 500.985 695.672C510.482 712.25 535.786 716.855 558.753 701.639C577.721 689.073 586.179 668.895 583.201 652.911Z" fill="black"/>
<g opacity="0.4">
<path d="M806.874 943.943C794.439 960.457 770.415 964.222 753.198 952.249C735.982 940.276 732.192 917.169 744.627 900.654C748.071 896.08 750.5 892.867 753.349 890.078C756.131 887.355 759.391 884.97 764.483 882.303C774.385 877.116 790.73 871.092 822.894 859.663C821.478 892.861 820.639 909.674 818.652 920.29C817.631 925.743 816.329 929.411 814.541 932.754C812.708 936.182 810.32 939.367 806.874 943.943Z" stroke="black" stroke-width="7"/>
<path d="M801.486 888.678L753.146 951.2" stroke="black" stroke-width="4"/>
<path d="M787.302 906.398L811.905 907.282" stroke="black" stroke-width="4"/>
<path d="M787.302 906.398L778.737 884.216" stroke="black" stroke-width="4"/>
<path d="M780.887 914.918L811.57 920.03" stroke="black" stroke-width="4"/>
<path d="M780.334 914.533L765.688 888.122" stroke="black" stroke-width="4"/>
<path d="M774.624 924.354L808.071 931.389" stroke="black" stroke-width="4"/>
<path d="M773.518 923.585L756.108 895.252" stroke="black" stroke-width="4"/>
<path d="M767.808 933.406L803.466 941.979" stroke="black" stroke-width="4"/>
<path d="M766.702 932.637L747.081 902.766" stroke="black" stroke-width="4"/>
<path d="M751.716 951.422C750.635 958.766 744.481 975.212 738.113 969.488" stroke="black" stroke-width="7"/>
</g>
<path opacity="0.4" fill-rule="evenodd" clip-rule="evenodd" d="M1028.77 771.01C1033.16 766.618 1039.24 763.549 1045.67 763.673C1052.94 763.812 1061.58 768.052 1069.49 781.259L1069.58 781.413L1069.69 781.556C1078.52 793.506 1086.88 798.22 1095.84 799.878C1100.15 800.678 1104.5 800.745 1108.8 800.725C1109.5 800.722 1110.2 800.716 1110.91 800.711L1110.91 800.711C1112.48 800.698 1114.06 800.686 1115.66 800.699C1107.51 815.097 1087.59 823.258 1065.5 817.328C1040.63 810.653 1025.99 789.615 1028.77 771.01ZM1021.96 769.334C1018.18 792.599 1036.43 816.769 1063.91 824.146C1092.38 831.788 1119.98 818.522 1125.55 794.517C1131.12 770.511 1112.56 744.856 1084.09 737.214C1055.62 729.572 1028.03 742.838 1022.46 766.844C1022.4 767.073 1022.35 767.303 1022.3 767.533C1021.95 767.937 1021.6 768.347 1021.28 768.762L1021.96 769.334ZM1033.13 759.344C1036.91 757.571 1041.13 756.532 1045.59 756.618C1055.87 756.815 1066.5 762.945 1075.3 777.569C1083.16 788.159 1089.98 791.66 1096.88 792.938C1100.5 793.609 1104.28 793.688 1108.56 793.669C1109.22 793.666 1109.89 793.66 1110.58 793.655L1110.58 793.655C1113.08 793.634 1115.75 793.613 1118.54 793.703C1118.63 793.371 1118.71 793.037 1118.79 792.702C1123.23 773.555 1108.43 750.99 1082.51 744.033C1061.1 738.285 1041.73 745.772 1033.13 759.344Z" fill="black"/>
<path opacity="0.4" fill-rule="evenodd" clip-rule="evenodd" d="M939.807 740.667C944.341 744.861 947.954 751.124 948.533 758.288C949.189 766.394 946.001 776.249 934.616 786.085L934.487 786.196L934.37 786.32C924.269 796.984 920.874 806.287 920.289 815.825C920.005 820.462 920.39 825.061 920.857 829.656C920.933 830.405 921.012 831.154 921.09 831.905L921.09 831.905C921.286 833.778 921.483 835.662 921.65 837.586C916.189 834.699 911.365 829.703 907.697 822.891C902.357 812.976 899.78 799.66 901.655 785.353C903.53 771.045 909.428 759.014 917.108 751.072C924.002 743.943 931.993 740.379 939.807 740.667ZM941.374 733.739C919.339 731.869 898.707 753.983 894.734 784.304C890.639 815.551 905.788 843.68 928.569 847.133C951.35 850.586 973.138 828.054 977.232 796.807C981.327 765.56 966.178 737.431 943.397 733.978C943.1 733.933 942.803 733.893 942.507 733.856C942.247 733.651 941.985 733.451 941.723 733.257L941.374 733.739ZM951.17 743.996C953.486 748.072 955.079 752.766 955.49 757.853C956.356 768.55 951.962 780.386 939.354 791.333C930.349 800.882 927.731 808.659 927.256 816.392C927.01 820.407 927.337 824.506 927.801 829.076C927.874 829.788 927.949 830.511 928.026 831.246L928.027 831.249C928.318 834.031 928.626 836.979 928.835 840.085C929.049 840.124 929.263 840.16 929.479 840.192C938.126 841.503 947.174 837.986 954.858 830.039C962.538 822.097 968.436 810.066 970.311 795.758C972.186 781.451 969.609 768.135 964.269 758.22C960.793 751.765 956.28 746.94 951.17 743.996Z" fill="black"/>
<path opacity="0.2" fill-rule="evenodd" clip-rule="evenodd" d="M955.336 603.875C958.273 598.359 963.42 593.204 970.16 590.754C977.786 587.982 988.037 588.468 1000.28 596.934L1000.42 597.03L1000.57 597.112C1013.3 604.112 1023.09 604.957 1032.43 603.003C1036.97 602.053 1041.3 600.462 1045.61 598.794C1046.32 598.522 1047.02 598.248 1047.72 597.973C1049.47 597.292 1051.22 596.607 1053.02 595.94C1051.58 602.043 1047.93 608.072 1042.26 613.444C1034.02 621.247 1021.84 627.261 1007.63 629.216C993.419 631.171 980.416 628.622 970.906 623.261C962.358 618.442 956.958 611.595 955.336 603.875ZM948.265 604.244C951.848 626.136 978.155 640.331 1008.3 636.183C1039.38 631.907 1062.78 609.754 1060.55 586.702C1058.33 563.651 1031.33 548.431 1000.25 552.707C969.167 556.983 945.774 579.136 947.998 602.188C948.026 602.484 948.059 602.778 948.096 603.071C947.955 603.391 947.821 603.71 947.693 604.029L948.265 604.244ZM955.778 591.967C959.13 588.658 963.249 585.886 968.031 584.148C978.137 580.474 990.616 581.624 1004.23 590.985C1015.61 597.211 1023.73 597.698 1031.27 596.119C1035.19 595.298 1039.06 593.898 1043.35 592.24C1044.01 591.982 1044.69 591.717 1045.38 591.449L1045.38 591.447C1047.98 590.432 1050.74 589.355 1053.67 588.334C1053.66 588.108 1053.64 587.882 1053.62 587.656C1052.77 578.864 1047.16 570.991 1037.64 565.629C1028.13 560.268 1015.13 557.719 1000.92 559.674C986.709 561.63 974.532 567.643 966.293 575.446C960.925 580.529 957.37 586.201 955.778 591.967Z" fill="black"/>
<g opacity="0.4">
<path d="M1162.1 634.287C1181.39 632.343 1200.87 647.934 1205.02 669.941C1209.17 691.947 1196.19 710.809 1176.89 712.753C1171.43 713.303 1167.64 713.676 1163.84 713.437C1160.13 713.204 1156.31 712.377 1151 710.334C1140.61 706.337 1125.11 697.94 1094.79 681.061C1118.04 658.768 1129.85 647.61 1138.31 641.706C1142.63 638.69 1145.95 637.148 1149.37 636.2C1152.89 635.225 1156.64 634.837 1162.1 634.287Z" stroke="black" stroke-width="7"/>
<path d="M1129.15 677.231L1204.51 670.699" stroke="black" stroke-width="4"/>
<path d="M1150.85 675.752L1134.24 656.215" stroke="black" stroke-width="4"/>
<path d="M1150.85 675.752L1142.09 697.846" stroke="black" stroke-width="4"/>
<path d="M1161 674.73L1142.95 647.56" stroke="black" stroke-width="4"/>
<path d="M1161.13 675.423L1153.8 705.15" stroke="black" stroke-width="4"/>
<path d="M1171.65 672.949L1152.94 642.31" stroke="black" stroke-width="4"/>
<path d="M1171.91 674.337L1165.24 707.533" stroke="black" stroke-width="4"/>
<path d="M1182.43 671.863L1163.2 638.448" stroke="black" stroke-width="4"/>
<path d="M1182.69 673.251L1176.55 709.222" stroke="black" stroke-width="4"/>
<path d="M1205.66 671.644C1211.3 667.341 1226.54 660.577 1227.18 669.476" stroke="black" stroke-width="7"/>
</g>
<path opacity="0.2" fill-rule="evenodd" clip-rule="evenodd" d="M1190.05 516.473C1195.77 514.556 1202.54 514.601 1208.38 517.77C1214.97 521.352 1221.06 529.313 1222.84 544.899L1222.86 545.078L1222.9 545.255C1226.02 560.132 1231.61 568.223 1238.94 573.854C1242.49 576.579 1246.35 578.66 1250.23 580.653C1250.87 580.979 1251.5 581.302 1252.14 581.626C1253.62 582.383 1255.11 583.142 1256.61 583.94C1243.6 592.84 1222.44 591.046 1204.74 575.191C1184.82 557.353 1180.39 531.668 1190.05 516.473ZM1184.91 511.648C1172 530.821 1178.65 561.193 1200.45 580.725C1223 600.92 1253.21 601.88 1267.93 582.868C1282.66 563.856 1276.32 532.073 1253.77 511.878C1231.22 491.683 1201.01 490.724 1186.29 509.736C1186.13 509.946 1185.97 510.157 1185.81 510.37C1185.4 510.542 1184.99 510.722 1184.6 510.91L1184.91 511.648ZM1198.7 507.951C1202.95 508.073 1207.29 509.103 1211.36 511.318C1220.43 516.243 1227.5 526.633 1229.52 543.926C1232.32 557.156 1237.06 563.555 1242.82 567.985C1245.84 570.301 1249.23 572.147 1253.08 574.129C1253.68 574.437 1254.29 574.748 1254.91 575.065L1254.91 575.065C1257.21 576.236 1259.65 577.479 1262.17 578.889C1262.35 578.662 1262.54 578.431 1262.72 578.197C1274.21 563.362 1270.33 536.087 1249.48 517.412C1232.27 501.994 1211.79 499.873 1198.7 507.951Z" fill="black"/>
<path opacity="0.2" fill-rule="evenodd" clip-rule="evenodd" d="M1209.98 384.11C1208.48 377.871 1208.86 370.582 1212.11 364.444C1215.8 357.502 1223.53 351.364 1238.09 350.243L1238.26 350.23L1238.43 350.199C1252.4 347.607 1260.17 342.012 1265.76 334.451C1268.46 330.788 1270.59 326.749 1272.63 322.684C1272.97 322.02 1273.3 321.355 1273.63 320.689C1274.42 319.111 1275.22 317.526 1276.05 315.93C1283.56 330.3 1280.88 352.902 1265.2 371.18C1247.55 391.745 1223.51 395.104 1209.98 384.11ZM1205.19 389.269C1222.34 404.145 1250.91 398.556 1270.16 376.111C1290.06 352.921 1292.49 320.519 1275.58 303.739C1258.67 286.96 1228.84 292.157 1208.94 315.347C1189.04 338.537 1186.61 370.939 1203.52 387.719C1203.72 387.912 1203.91 388.103 1204.11 388.291C1204.24 388.712 1204.38 389.127 1204.53 389.536L1205.19 389.269ZM1202.48 374.373C1202.79 369.779 1203.97 365.125 1206.25 360.826C1211.27 351.376 1221.24 344.315 1237.4 343.027C1249.84 340.688 1256.04 335.917 1260.47 329.924C1262.77 326.797 1264.66 323.247 1266.7 319.205C1267.02 318.576 1267.34 317.935 1267.66 317.283C1268.87 314.86 1270.16 312.289 1271.6 309.649C1271.41 309.446 1271.22 309.247 1271.02 309.052C1257.94 296.068 1232.41 298.714 1213.91 320.278C1198.64 338.074 1195.69 359.967 1202.48 374.373Z" fill="black"/>
<g opacity="0.2">
<path d="M1381.85 500.477C1380.78 521.917 1363.26 540.01 1342.99 541.167C1322.72 542.324 1306.91 526.133 1307.98 504.694C1308.55 493.185 1308.83 487.746 1314.07 477.2C1319.26 466.759 1329.18 451.597 1348.91 422.164C1365.81 449.829 1374.28 463.948 1378.46 473.79C1380.62 478.861 1381.57 482.674 1381.95 486.54C1382.34 490.495 1382.14 494.603 1381.85 500.477Z" stroke="black" stroke-width="7"/>
<path d="M1347.41 459.121L1342.38 540.253" stroke="black" stroke-width="4"/>
<path d="M1345.59 482.421L1366 467.611" stroke="black" stroke-width="4"/>
<path d="M1345.59 482.421L1326.55 469.863" stroke="black" stroke-width="4"/>
<path d="M1345.04 493.368L1372.68 478.146" stroke="black" stroke-width="4"/>
<path d="M1344.39 493.405L1318.12 481.26" stroke="black" stroke-width="4"/>
<path d="M1345.12 504.961L1376.04 489.551" stroke="black" stroke-width="4"/>
<path d="M1343.81 505.036L1314.25 493.079" stroke="black" stroke-width="4"/>
<path d="M1344.54 516.592L1378.09 501.032" stroke="black" stroke-width="4"/>
<path d="M1343.23 516.667L1311.04 504.86" stroke="black" stroke-width="4"/>
<path d="M1341.34 541.335C1344.47 547.964 1348.46 565.165 1340.18 564.548" stroke="black" stroke-width="7"/>
</g>
<g opacity="0.2">
<path d="M1125.22 399.505C1138.19 415.437 1137.62 441.556 1123.65 457.843C1109.68 474.13 1087.85 474.134 1074.88 458.202C1071.27 453.772 1068.74 450.657 1066.68 447.169C1064.66 443.765 1063.03 439.911 1061.46 434.064C1058.39 422.676 1055.65 404.3 1050.63 368.177C1080.89 375.345 1096.17 379.1 1105.57 383.017C1110.39 385.025 1113.53 387.027 1116.28 389.485C1119.1 392.006 1121.61 395.073 1125.22 399.505Z" stroke="black" stroke-width="7"/>
<path d="M1073.62 395.858L1122.68 457.727" stroke="black" stroke-width="4"/>
<path d="M1087.44 413.906L1092.44 387.983" stroke="black" stroke-width="4"/>
<path d="M1087.44 413.906L1065.66 419.208" stroke="black" stroke-width="4"/>
<path d="M1094.16 422.154L1104.07 390.507" stroke="black" stroke-width="4"/>
<path d="M1093.71 422.674L1067.02 433.701" stroke="black" stroke-width="4"/>
<path d="M1101.74 430.397L1113.88 396.148" stroke="black" stroke-width="4"/>
<path d="M1100.85 431.438L1071.92 445.067" stroke="black" stroke-width="4"/>
<path d="M1108.87 439.161L1122.8 402.83" stroke="black" stroke-width="4"/>
<path d="M1107.98 440.202L1077.27 455.912" stroke="black" stroke-width="4"/>
<path d="M1122.64 459.281C1129.19 461.676 1143.21 470.997 1136.88 476.772" stroke="black" stroke-width="7"/>
</g>
<path opacity="0.2" fill-rule="evenodd" clip-rule="evenodd" d="M1378.04 326.356C1373.94 321.673 1370.96 315.041 1371.08 307.862C1371.21 299.739 1375.34 290.302 1387.62 281.802L1387.75 281.706L1387.88 281.596C1398.97 272.125 1403.25 263.251 1404.76 253.823C1405.5 249.241 1405.56 244.622 1405.55 239.999C1405.54 239.245 1405.54 238.492 1405.53 237.736C1405.52 235.857 1405.51 233.969 1405.53 232.043C1410.7 235.534 1415.02 241.057 1418.01 248.25C1422.35 258.707 1423.62 272.229 1420.36 286.235C1417.11 300.241 1410.08 311.534 1401.67 318.565C1394.12 324.882 1385.81 327.535 1378.04 326.356ZM1375.83 333.094C1397.56 337.42 1420.22 317.751 1427.12 288.052C1434.23 257.437 1421.91 227.757 1399.59 221.76C1377.27 215.763 1353.41 235.719 1346.29 266.333C1339.18 296.948 1351.51 326.628 1373.83 332.625C1374.12 332.702 1374.41 332.776 1374.7 332.844C1374.94 333.084 1375.19 333.317 1375.43 333.546L1375.83 333.094ZM1367.07 321.767C1365.17 317.462 1364.05 312.625 1364.14 307.529C1364.32 296.782 1369.84 285.499 1383.45 276.031C1393.33 267.549 1396.69 260.114 1397.91 252.485C1398.55 248.522 1398.62 244.41 1398.6 239.813C1398.6 239.097 1398.59 238.369 1398.59 237.629L1398.59 237.628C1398.57 234.832 1398.55 231.87 1398.65 228.761C1398.43 228.697 1398.22 228.636 1398 228.578C1389.5 226.295 1380.15 228.786 1371.74 235.82C1363.34 242.851 1356.31 254.144 1353.05 268.15C1349.8 282.155 1351.07 295.678 1355.41 306.135C1358.24 312.945 1362.26 318.258 1367.07 321.767Z" fill="black"/>
<g opacity="0.2">
<path d="M1250.83 182.369C1248.97 161.003 1263.84 140.339 1283.75 136.002C1303.66 131.665 1321.49 145.206 1323.35 166.572C1324.35 178.047 1324.81 183.469 1321.06 194.723C1317.35 205.869 1309.59 222.435 1294.07 254.668C1273.58 229.949 1263.28 217.312 1257.8 208.232C1254.98 203.554 1253.52 199.934 1252.62 196.171C1251.7 192.32 1251.34 188.226 1250.83 182.369Z" stroke="black" stroke-width="7"/>
<path d="M1290.53 217.86L1284.47 136.809" stroke="black" stroke-width="4"/>
<path d="M1289.16 194.524L1270.99 212.385" stroke="black" stroke-width="4"/>
<path d="M1289.16 194.524L1309.7 203.952" stroke="black" stroke-width="4"/>
<path d="M1288.21 183.609L1262.94 203.016" stroke="black" stroke-width="4"/>
<path d="M1288.86 183.469L1316.5 191.35" stroke="black" stroke-width="4"/>
<path d="M1286.56 172.153L1258.06 192.261" stroke="black" stroke-width="4"/>
<path d="M1287.85 171.872L1318.71 179.051" stroke="black" stroke-width="4"/>
<path d="M1285.55 160.555L1254.48 181.226" stroke="black" stroke-width="4"/>
<path d="M1286.84 160.274L1320.29 166.891" stroke="black" stroke-width="4"/>
<path d="M1285.35 135.575C1281.35 129.51 1275.07 113.122 1283.34 112.429" stroke="black" stroke-width="7"/>
</g>
<path opacity="0.2" fill-rule="evenodd" clip-rule="evenodd" d="M1141.08 152.45C1139.29 146.302 1139.32 138.994 1142.29 132.674C1145.65 125.525 1153.1 118.972 1167.59 117.061L1167.76 117.039L1167.92 117C1181.75 113.652 1189.24 107.644 1194.46 99.7984C1196.99 95.9963 1198.92 91.8492 1200.77 87.6784C1201.07 86.9985 1201.37 86.3179 1201.67 85.6362L1201.68 85.6317C1202.39 84.0045 1203.11 82.3706 1203.87 80.7219C1212.02 94.6431 1210.42 117.348 1195.6 136.483C1178.92 158.012 1155.08 162.638 1141.08 152.45ZM1136.52 157.816C1154.35 171.757 1182.63 164.624 1200.81 141.155C1219.59 116.913 1220.49 84.4203 1202.82 68.5813C1185.14 52.7424 1155.59 59.5547 1136.81 83.797C1118.02 108.039 1117.12 140.532 1134.8 156.371C1135.01 156.556 1135.21 156.739 1135.43 156.918C1135.57 157.321 1135.73 157.718 1135.89 158.109L1136.52 157.816ZM1133.13 143.128C1133.22 138.507 1134.18 133.778 1136.26 129.348C1140.81 119.653 1150.43 112.061 1166.51 109.896C1178.82 106.884 1184.8 101.779 1188.95 95.5438C1191.11 92.2921 1192.83 88.6408 1194.67 84.4933C1194.96 83.8493 1195.25 83.1929 1195.54 82.5255L1195.54 82.5217C1196.64 80.0307 1197.81 77.3878 1199.13 74.6672C1198.93 74.4797 1198.73 74.2955 1198.53 74.1147C1184.9 61.899 1159.52 65.8792 1142.02 88.4687C1127.58 107.107 1125.69 129.132 1133.13 143.128Z" fill="black"/>
<path opacity="0.2" fill-rule="evenodd" clip-rule="evenodd" d="M1017.94 130.871C1012.14 132.473 1005.37 132.061 999.683 128.569C993.251 124.62 987.548 116.323 986.509 100.66L986.497 100.48L986.469 100.302C984.061 85.2746 978.857 76.8956 971.813 70.8776C968.404 67.9646 964.645 65.6747 960.866 63.472C960.25 63.1132 959.634 62.7566 959.016 62.3995L959.01 62.3958C957.555 61.554 956.095 60.7091 954.624 59.8239C968.023 51.687 989.057 54.614 1006.01 71.4459C1025.08 90.3826 1028.25 116.26 1017.94 130.871ZM1022.81 135.99C1036.62 117.552 1031.43 86.8433 1010.57 66.1346C989.01 44.729 958.882 42.1134 943.276 60.2926C927.669 78.4717 932.495 110.561 954.053 131.967C975.612 153.373 1005.74 155.988 1021.35 137.809C1021.52 137.605 1021.69 137.399 1021.86 137.191C1022.27 137.045 1022.67 136.891 1023.07 136.729L1022.81 135.99ZM1008.89 138.916C1004.64 138.568 1000.34 137.301 996.364 134.858C987.556 129.451 980.99 118.7 979.796 101.318C977.625 87.9493 973.194 81.29 967.636 76.5416C964.733 74.0611 961.436 72.0296 957.678 69.8393C957.094 69.4989 956.499 69.1545 955.893 68.8043L955.892 68.8039L955.892 68.8038C953.647 67.5054 951.264 66.1272 948.817 64.5779C948.622 64.79 948.431 65.0056 948.243 65.2247C936.104 79.3643 938.634 106.818 958.613 126.656C975.105 143.031 995.461 146.246 1008.89 138.916Z" fill="black"/>
<g opacity="0.4">
<path d="M1175.19 873.016C1182.15 852.951 1203.87 841.27 1223.58 846.684C1243.3 852.099 1253.85 872.644 1246.9 892.709C1244.99 898.221 1243.63 902.113 1241.75 905.748C1239.91 909.302 1237.51 912.691 1233.47 916.97C1225.62 925.271 1211.93 936.561 1184.91 958.34C1176.45 926.483 1172.28 910.282 1171.02 899.546C1170.37 894.018 1170.52 890.079 1171.23 886.275C1171.96 882.381 1173.28 878.53 1175.19 873.016Z" stroke="black" stroke-width="7"/>
<path d="M1196.6 923.544L1223.92 847.726" stroke="black" stroke-width="4"/>
<path d="M1204.8 901.89L1181.22 909.476" stroke="black" stroke-width="4"/>
<path d="M1204.8 901.89L1219.49 919.986" stroke="black" stroke-width="4"/>
<path d="M1208.36 891.618L1177.76 897.276" stroke="black" stroke-width="4"/>
<path d="M1209 891.793L1230.7 911.816" stroke="black" stroke-width="4"/>
<path d="M1211.51 880.528L1177.72 885.31" stroke="black" stroke-width="4"/>
<path d="M1212.78 880.878L1237.67 901.777" stroke="black" stroke-width="4"/>
<path d="M1215.29 869.613L1178.95 873.695" stroke="black" stroke-width="4"/>
<path d="M1216.56 869.964L1244.01 891.563" stroke="black" stroke-width="4"/>
<path d="M1225.21 847.026C1224.06 839.693 1225.03 821.996 1232.76 825.242" stroke="black" stroke-width="7"/>
</g>
<g opacity="0.2">
<path d="M1020.88 282.04C1006.03 268.27 1003.14 242.329 1014.91 224.032C1026.67 205.735 1048.29 202.527 1063.14 216.296C1067.29 220.142 1070.19 222.842 1072.68 225.977C1075.12 229.036 1077.23 232.598 1079.54 238.146C1084.06 248.965 1089.17 266.764 1098.84 301.838C1067.9 299.282 1052.26 297.86 1042.44 295.394C1037.41 294.13 1034.06 292.622 1031.02 290.608C1027.91 288.541 1025.03 285.887 1020.88 282.04Z" stroke="black" stroke-width="7"/>
<path d="M1072.47 277.869L1015.85 223.978" stroke="black" stroke-width="4"/>
<path d="M1056.44 262.075L1054.86 288.494" stroke="black" stroke-width="4"/>
<path d="M1056.44 262.075L1077.32 253.552" stroke="black" stroke-width="4"/>
<path d="M1048.72 254.917L1043.02 287.742" stroke="black" stroke-width="4"/>
<path d="M1049.09 254.334L1074.09 239.405" stroke="black" stroke-width="4"/>
<path d="M1040.14 247.893L1032.57 283.63" stroke="black" stroke-width="4"/>
<path d="M1040.89 246.728L1067.76 228.887" stroke="black" stroke-width="4"/>
<path d="M1031.94 240.287L1022.87 278.354" stroke="black" stroke-width="4"/>
<path d="M1032.68 239.123L1061.05 218.952" stroke="black" stroke-width="4"/>
<path d="M1015.69 222.434C1008.9 221.045 993.801 213.923 999.317 207.254" stroke="black" stroke-width="7"/>
</g>
<path opacity="0.2" fill-rule="evenodd" clip-rule="evenodd" d="M925.54 203.456C922.671 209.123 917.822 214.102 911.701 216.183C904.792 218.532 895.351 217.482 883.944 207.668L883.812 207.555L883.668 207.455C871.757 199.149 862.435 197.535 853.438 199.033C849.102 199.754 844.963 201.179 840.894 202.669C840.228 202.913 839.563 203.159 838.898 203.405L838.896 203.406C837.417 203.953 835.935 204.501 834.425 205.033C837.881 188.551 854.376 174.005 877.034 172.067C902.536 169.885 922.676 184.801 925.54 203.456ZM932.508 202.668C929.202 179.326 904.751 162.671 876.518 165.086C847.268 167.588 825.036 189.611 826.86 214.275C828.685 238.939 853.875 256.905 883.124 254.403C912.373 251.901 934.606 229.878 932.782 205.214C932.764 204.984 932.745 204.754 932.724 204.525C932.946 204.01 933.154 203.493 933.348 202.976L932.508 202.668ZM924.853 216.003C921.798 218.961 918.119 221.375 913.881 222.816C904.059 226.154 892.165 223.97 879.489 213.123C868.901 205.776 861.415 204.794 854.508 205.944C850.876 206.548 847.275 207.764 843.229 209.246C842.602 209.476 841.964 209.713 841.314 209.953C838.952 210.827 836.442 211.757 833.775 212.626C833.789 212.977 833.809 213.327 833.835 213.678C835.295 233.414 856.042 249.695 882.608 247.422C904.554 245.545 920.718 231.839 924.853 216.003Z" fill="black"/>
<path opacity="0.2" fill-rule="evenodd" clip-rule="evenodd" d="M997.246 312.671C1002.37 315.986 1006.91 321.51 1008.6 328.472C1010.51 336.35 1008.91 346.645 999.215 358.396L999.106 358.528L999.01 358.671C990.716 371.006 988.822 380.787 989.733 390.291C990.176 394.913 991.274 399.376 992.451 403.822C992.643 404.547 992.837 405.271 993.031 405.997C993.517 407.811 994.006 409.636 994.472 411.505C988.647 409.645 983.119 405.594 978.441 399.543C971.629 390.73 967.009 378.063 966.625 363.614C966.241 349.165 970.181 336.236 976.514 327.018C982.196 318.748 989.511 313.799 997.246 312.671ZM997.726 305.565C975.708 307.692 958.815 333.218 959.628 363.829C960.466 395.372 979.789 420.369 1002.79 419.662C1025.78 418.956 1043.75 392.812 1042.91 361.269C1042.07 329.727 1022.75 304.729 999.75 305.436C999.449 305.446 999.149 305.459 998.849 305.477C998.565 305.324 998.279 305.176 997.993 305.033L997.726 305.565ZM1008.97 313.902C1011.9 317.504 1014.2 321.848 1015.4 326.794C1017.92 337.177 1015.44 349.635 1004.72 362.701C997.331 373.74 995.961 381.882 996.701 389.595C997.084 393.598 998.047 397.582 999.217 402.003C999.4 402.692 999.587 403.392 999.778 404.103L999.778 404.104C1000.5 406.796 1001.26 409.649 1001.95 412.676C1002.17 412.675 1002.38 412.672 1002.6 412.665C1011.32 412.397 1019.68 407.304 1026.02 398.08C1032.36 388.863 1036.29 375.933 1035.91 361.484C1035.53 347.036 1030.91 334.369 1024.09 325.556C1019.66 319.82 1014.46 315.881 1008.97 313.902Z" fill="black"/>
<g opacity="0.2">
<path d="M839.618 378.637C821.801 387.133 798.751 378.937 788.357 359.597C777.963 340.256 784.597 317.904 802.414 309.408C807.422 307.019 810.921 305.361 814.608 304.282C818.201 303.23 822.083 302.705 827.73 302.823C838.756 303.055 855.908 305.706 889.571 311.312C874.171 340.336 866.285 354.938 860.013 363.427C856.804 367.771 854.111 370.377 851.135 372.456C848.077 374.592 844.628 376.247 839.618 378.637Z" stroke="black" stroke-width="7"/>
<path d="M858.163 326.692L788.654 358.685" stroke="black" stroke-width="4"/>
<path d="M838.032 335.522L859.562 348.356" stroke="black" stroke-width="4"/>
<path d="M838.032 335.522L839.798 311.578" stroke="black" stroke-width="4"/>
<path d="M828.714 339.966L853.868 359.543" stroke="black" stroke-width="4"/>
<path d="M828.384 339.353L826.526 308.667" stroke="black" stroke-width="4"/>
<path d="M819.142 345.301L845.943 367.942" stroke="black" stroke-width="4"/>
<path d="M818.484 344.075L814.979 310.323" stroke="black" stroke-width="4"/>
<path d="M809.241 350.022L837.36 375.116" stroke="black" stroke-width="4"/>
<path d="M808.582 348.796L803.76 312.593" stroke="black" stroke-width="4"/>
<path d="M787.287 358.182C783.215 364.192 770.773 375.82 767.527 367.606" stroke="black" stroke-width="7"/>
</g>
<path opacity="0.4" fill-rule="evenodd" clip-rule="evenodd" d="M868.222 632.046C871.494 637.436 873.332 644.515 872.046 651.532C870.592 659.469 865.016 667.969 851.54 674.018L851.387 674.087L851.242 674.171C838.779 681.405 833.098 689.342 830.064 698.36C828.591 702.739 827.773 707.28 827.036 711.834C826.916 712.577 826.797 713.321 826.679 714.066C826.387 715.9 826.094 717.743 825.764 719.615C821.194 715.178 817.822 708.889 816.051 701.227C813.485 690.127 814.447 676.605 819.923 663.463C825.399 650.322 834.143 640.551 843.554 635.223C852.031 630.425 860.697 629.37 868.222 632.046ZM871.419 625.748C850.744 617.424 825.25 632.507 813.617 660.424C801.618 689.221 808.91 720.767 829.904 730.885C850.899 741.004 877.646 725.862 889.645 697.066C901.644 668.27 894.352 636.723 873.358 626.605C873.094 626.478 872.829 626.354 872.563 626.235C872.349 625.934 872.131 625.639 871.911 625.349L871.419 625.748ZM878.247 638.63C879.391 643.199 879.694 648.14 878.783 653.113C876.845 663.692 869.54 673.768 854.6 680.521C843.492 687.003 838.986 693.678 836.545 700.936C835.275 704.71 834.532 708.739 833.798 713.267C833.684 713.973 833.57 714.691 833.454 715.421L833.454 715.421C833.018 718.165 832.556 721.074 831.958 724.105C832.17 724.214 832.383 724.321 832.597 724.424C840.654 728.307 850.298 727.594 859.708 722.267C869.119 716.939 877.863 707.168 883.339 694.027C888.815 680.886 889.777 667.364 887.211 656.264C885.538 649.026 882.437 643.014 878.247 638.63Z" fill="black"/>
<g opacity="0.2">
<path d="M884.09 500.966C867.237 490.402 859.915 465.492 868.407 445.099C876.899 424.706 897.641 417.388 914.494 427.952C919.228 430.919 922.528 432.998 925.503 435.583C928.402 438.102 931.074 441.18 934.293 446.174C940.579 455.926 948.629 472.438 964.127 505.082C933.217 508.658 917.586 510.336 907.51 509.841C902.355 509.588 898.811 508.765 895.498 507.388C892.095 505.973 888.825 503.934 884.09 500.966Z" stroke="black" stroke-width="7"/>
<path d="M934.11 486.691L869.288 444.837" stroke="black" stroke-width="4"/>
<path d="M915.664 474.314L918.601 500.599" stroke="black" stroke-width="4"/>
<path d="M915.664 474.314L934.745 461.83" stroke="black" stroke-width="4"/>
<path d="M906.857 468.794L906.834 502.186" stroke="black" stroke-width="4"/>
<path d="M907.127 468.148L929.167 448.556" stroke="black" stroke-width="4"/>
<path d="M897.231 463.575L895.863 500.198" stroke="black" stroke-width="4"/>
<path d="M897.77 462.282L921.155 439.46" stroke="black" stroke-width="4"/>
<path d="M887.874 457.709L885.429 496.917" stroke="black" stroke-width="4"/>
<path d="M888.412 456.417L912.874 431.01" stroke="black" stroke-width="4"/>
<path d="M868.866 443.35C861.952 443.32 845.901 439.285 850.191 431.644" stroke="black" stroke-width="7"/>
</g>
<path opacity="0.2" fill-rule="evenodd" clip-rule="evenodd" d="M712.687 391.053C707.08 388.813 701.674 384.29 698.819 377.794C695.59 370.445 695.393 360.018 702.893 346.542L702.978 346.39L703.048 346.23C709.077 332.456 709.257 322.46 706.723 313.292C705.492 308.836 703.645 304.666 701.723 300.531C701.409 299.857 701.094 299.184 700.778 298.509C699.991 296.829 699.2 295.14 698.423 293.403C704.49 294.067 710.635 296.954 716.278 301.974C724.485 309.275 731.199 320.794 734.06 334.903C736.921 349.012 735.276 362.49 730.641 372.804C726.478 382.066 720.127 388.403 712.687 391.053ZM713.48 398.14C734.74 391.656 746.94 363.216 740.875 333.304C734.623 302.473 711.333 281.754 688.855 287.026C666.377 292.297 653.223 321.565 659.474 352.395C665.726 383.226 689.017 403.946 711.495 398.674C711.786 398.606 712.076 398.534 712.364 398.457C712.679 398.554 712.993 398.646 713.308 398.731L713.48 398.14ZM700.962 392.173C697.481 389.219 694.478 385.416 692.451 380.805C688.183 371.091 688.482 358.344 696.77 343.369C702.13 331.052 702.072 322.785 700.021 315.362C698.956 311.507 697.326 307.786 695.415 303.674C695.117 303.033 694.812 302.382 694.502 301.721C693.331 299.223 692.091 296.576 690.893 293.743C690.677 293.788 690.461 293.835 690.246 293.886C681.697 295.891 674.345 302.579 669.708 312.896C665.073 323.21 663.429 336.688 666.29 350.797C669.151 364.906 675.864 376.425 684.071 383.726C689.415 388.48 695.21 391.322 700.962 392.173Z" fill="black"/>
<path opacity="0.2" fill-rule="evenodd" clip-rule="evenodd" d="M620.846 482.454C618.434 488.361 613.992 493.767 608.051 496.399C601.343 499.37 591.849 499.177 579.713 490.435L579.572 490.334L579.421 490.247C566.902 483.053 557.489 482.293 548.647 484.601C544.385 485.713 540.373 487.508 536.436 489.362C535.791 489.666 535.147 489.972 534.503 490.278L534.503 490.278C533.068 490.959 531.63 491.642 530.163 492.311C532.317 475.59 547.601 459.595 570.042 455.603C595.299 451.11 616.525 464.152 620.846 482.454ZM627.72 481.054C622.597 458.092 596.924 443.714 568.978 448.684C540.03 453.834 519.606 477.797 523.36 502.207C527.114 526.618 553.625 542.232 582.573 537.083C611.522 531.934 631.946 507.971 628.192 483.56C628.156 483.33 628.119 483.101 628.08 482.873C628.259 482.343 628.424 481.814 628.575 481.286L627.72 481.054ZM621.149 495.02C618.334 498.252 614.854 500.998 610.737 502.821C601.22 507.037 589.202 505.944 575.719 496.285C564.592 489.926 557.052 489.626 550.254 491.4C546.682 492.333 543.188 493.872 539.273 495.716C538.666 496.002 538.048 496.296 537.42 496.594C535.132 497.681 532.702 498.836 530.111 499.945C530.152 500.291 530.199 500.636 530.252 500.981C533.252 520.489 555.192 534.845 581.509 530.164C603.25 526.297 618.273 511.164 621.149 495.02Z" fill="black"/>
<g opacity="0.2">
<path d="M339.564 139.49C337.516 118.146 352.193 97.3274 372.065 92.7832C391.937 88.2389 409.893 101.595 411.942 122.939C413.042 134.403 413.552 139.819 409.908 151.112C406.298 162.296 398.688 178.942 383.458 211.337C362.748 186.831 352.328 174.302 346.772 165.279C343.91 160.63 342.416 157.025 341.482 153.272C340.525 149.431 340.126 145.342 339.564 139.49Z" stroke="black" stroke-width="7"/>
<path d="M379.584 174.566L372.799 93.5819" stroke="black" stroke-width="4"/>
<path d="M378.004 151.246L359.995 169.294" stroke="black" stroke-width="4"/>
<path d="M378.004 151.246L398.63 160.459" stroke="black" stroke-width="4"/>
<path d="M376.958 140.341L351.866 160.009" stroke="black" stroke-width="4"/>
<path d="M377.602 140.194L405.31 147.788" stroke="black" stroke-width="4"/>
<path d="M375.202 128.902L346.89 149.307" stroke="black" stroke-width="4"/>
<path d="M376.49 128.608L407.418 135.465" stroke="black" stroke-width="4"/>
<path d="M374.09 117.316L343.203 138.309" stroke="black" stroke-width="4"/>
<path d="M375.378 117.022L408.882 123.29" stroke="black" stroke-width="4"/>
<path d="M373.667 92.3387C369.613 86.3154 363.18 69.9935 371.448 69.215" stroke="black" stroke-width="7"/>
</g>
<g opacity="0.2">
<path d="M374.294 521.768C355.508 516.567 342.091 494.793 345.113 472.583C348.135 450.373 366.288 437.339 385.074 442.541C390.382 444.01 394.073 445.042 397.578 446.652C400.991 448.22 404.331 450.392 408.687 454.25C417.207 461.795 429.143 475.339 452.361 502.261C423.472 514.776 408.844 520.974 399.021 523.449C394.002 524.713 390.395 524.957 386.874 524.603C383.254 524.239 379.604 523.238 374.294 521.768Z" stroke="black" stroke-width="7"/>
<path d="M418.814 493.352L345.846 472.059" stroke="black" stroke-width="4"/>
<path d="M397.932 486.844L407.412 511.275" stroke="black" stroke-width="4"/>
<path d="M397.932 486.844L413.132 469.245" stroke="black" stroke-width="4"/>
<path d="M388.061 484.11L396.492 516.248" stroke="black" stroke-width="4"/>
<path d="M388.156 483.41L404.404 458.105" stroke="black" stroke-width="4"/>
<path d="M377.477 481.907L385.432 517.547" stroke="black" stroke-width="4"/>
<path d="M377.668 480.506L394.392 451.699" stroke="black" stroke-width="4"/>
<path d="M366.988 479.003L374.562 517.445" stroke="black" stroke-width="4"/>
<path d="M367.179 477.602L384.285 445.992" stroke="black" stroke-width="4"/>
<path d="M345.063 470.752C338.403 472.747 321.937 473.564 324.13 464.956" stroke="black" stroke-width="7"/>
</g>
<path opacity="0.2" fill-rule="evenodd" clip-rule="evenodd" d="M365.882 560.453C371.848 560.989 378.162 563.778 382.513 569.168C387.434 575.265 390.249 585.205 386.411 600.357L386.367 600.529L386.34 600.705C383.992 615.727 386.327 625.432 391.087 633.555C393.397 637.498 396.229 640.984 399.117 644.407C399.588 644.964 400.06 645.521 400.534 646.078L400.536 646.081C401.697 647.448 402.863 648.822 404.028 650.244C397.942 651.409 391.238 650.406 384.521 647.2C374.806 642.563 365.485 633.45 359.213 620.747C352.941 608.044 351.143 594.636 353.013 583.383C354.699 573.236 359.259 565.209 365.882 560.453ZM363.175 553.876C344.382 566.317 339.798 597.207 353.134 624.218C366.895 652.089 394.522 665.276 414.841 653.673C435.161 642.069 440.478 610.07 426.718 582.199C412.958 554.329 385.331 541.142 365.011 552.745C364.759 552.889 364.51 553.036 364.262 553.186C363.899 553.182 363.538 553.186 363.18 553.195L363.175 553.876ZM376.863 555.997C380.901 557.833 384.697 560.606 387.778 564.422C394.361 572.577 397.265 584.979 393.045 601.806C390.978 615.211 393.11 623.126 396.93 629.647C398.918 633.039 401.416 636.143 404.288 639.546C404.736 640.077 405.192 640.614 405.657 641.161C407.399 643.212 409.246 645.387 411.1 647.751C411.315 647.636 411.53 647.517 411.742 647.396C419.57 642.926 424.97 634.283 426.839 623.034C428.709 611.782 426.911 598.373 420.639 585.67C414.368 572.968 405.047 563.855 395.332 559.218C388.994 556.193 382.669 555.129 376.863 555.997Z" fill="black"/>
<g opacity="0.4">
<path d="M251.592 694.672C238.96 711.003 214.892 714.433 197.818 702.212C180.743 689.991 177.243 666.831 189.875 650.5C193.375 645.975 195.843 642.798 198.725 640.05C201.54 637.367 204.828 635.029 209.952 632.435C219.917 627.389 236.335 621.597 268.642 610.623C266.819 643.803 265.773 660.605 263.656 671.191C262.569 676.629 261.222 680.278 259.394 683.595C257.52 686.995 255.093 690.145 251.592 694.672Z" stroke="black" stroke-width="7"/>
<path d="M246.879 639.334L197.777 701.164" stroke="black" stroke-width="4"/>
<path d="M232.479 656.851L257.068 658.084" stroke="black" stroke-width="4"/>
<path d="M232.479 656.851L224.186 634.549" stroke="black" stroke-width="4"/>
<path d="M225.96 665.279L256.578 670.826" stroke="black" stroke-width="4"/>
<path d="M225.412 664.887L211.091 638.27" stroke="black" stroke-width="4"/>
<path d="M219.581 674.626L252.94 682.134" stroke="black" stroke-width="4"/>
<path d="M218.485 673.841L201.424 645.263" stroke="black" stroke-width="4"/>
<path d="M212.655 683.58L248.206 692.658" stroke="black" stroke-width="4"/>
<path d="M211.559 682.796L192.306 652.649" stroke="black" stroke-width="4"/>
<path d="M196.343 701.366C195.173 708.694 188.817 725.051 182.52 719.238" stroke="black" stroke-width="7"/>
</g>
<path opacity="0.4" fill-rule="evenodd" clip-rule="evenodd" d="M309.065 799.681C306.248 805.377 301.444 810.407 295.341 812.551C288.453 814.972 279.003 814.02 267.508 804.325L267.375 804.213L267.23 804.114C255.245 795.933 245.909 794.417 236.927 796.007C232.598 796.774 228.471 798.242 224.416 799.774C223.752 800.025 223.089 800.278 222.426 800.531L222.425 800.532L222.425 800.532C220.95 801.094 219.473 801.658 217.967 802.206C221.275 785.69 237.638 770.973 260.279 768.799C285.761 766.352 306.033 781.058 309.065 799.681ZM316.025 798.821C312.509 775.514 287.91 759.114 259.7 761.823C230.474 764.629 208.441 786.882 210.487 811.526C212.533 836.17 237.883 853.873 267.109 851.067C296.334 848.261 318.368 826.008 316.322 801.363C316.303 801.134 316.281 800.904 316.258 800.675C316.476 800.158 316.679 799.639 316.868 799.12L316.025 798.821ZM308.491 812.234C305.463 815.224 301.806 817.676 297.58 819.161C287.789 822.602 275.876 820.542 263.104 809.827C252.45 802.591 244.956 801.687 238.058 802.908C234.432 803.55 230.842 804.804 226.81 806.328C226.185 806.564 225.548 806.807 224.901 807.054C222.547 807.953 220.044 808.909 217.386 809.806C217.403 810.156 217.426 810.507 217.455 810.857C219.092 830.574 239.984 846.64 266.53 844.091C288.46 841.985 304.499 828.112 308.491 812.234Z" fill="black"/>
<path opacity="0.4" fill-rule="evenodd" clip-rule="evenodd" d="M381.75 908.145C386.903 911.407 391.494 916.882 393.246 923.827C395.229 931.685 393.715 941.995 384.131 953.846L384.023 953.98L383.928 954.124C375.746 966.544 373.94 976.345 374.936 985.84C375.421 990.456 376.558 994.908 377.775 999.341C377.974 1000.06 378.174 1000.79 378.375 1001.51L378.375 1001.51C378.877 1003.32 379.383 1005.14 379.865 1007C374.023 1005.2 368.459 1001.21 363.727 995.208C356.836 986.466 352.102 973.848 351.588 959.404C351.074 944.96 354.898 931.99 361.148 922.707C366.755 914.378 374.025 909.353 381.75 908.145ZM382.166 901.034C360.169 903.39 343.505 929.091 344.594 959.692C345.716 991.224 365.262 1016.02 388.252 1015.07C411.241 1014.13 428.969 987.798 427.847 956.266C426.725 924.733 407.179 899.938 384.189 900.884C383.888 900.896 383.588 900.913 383.289 900.934C383.002 900.784 382.715 900.639 382.428 900.499L382.166 901.034ZM393.485 909.253C396.442 912.824 398.787 917.145 400.032 922.078C402.646 932.434 400.276 944.917 389.673 958.095C382.384 969.21 381.088 977.366 381.896 985.07C382.316 989.07 383.314 993.043 384.524 997.452C384.713 998.139 384.907 998.838 385.104 999.547C385.85 1002.23 386.64 1005.08 387.358 1008.1C387.573 1008.09 387.788 1008.09 388.003 1008.08C396.717 1007.72 405.039 1002.54 411.293 993.25C417.543 983.967 421.367 970.998 420.853 956.553C420.339 942.109 415.605 929.492 408.714 920.75C404.228 915.06 398.994 911.175 393.485 909.253Z" fill="black"/>
<path opacity="0.4" fill-rule="evenodd" clip-rule="evenodd" d="M647.884 785.958C650.316 791.844 651.074 799.128 648.781 805.803C646.189 813.351 639.459 820.781 625.263 824.454L625.101 824.496L624.944 824.555C611.565 829.573 604.768 836.451 600.429 844.863C598.325 848.943 596.845 853.294 595.445 857.664C595.217 858.378 594.99 859.092 594.763 859.807L594.763 859.808L594.763 859.808C594.212 861.546 593.658 863.293 593.065 865.061C589.153 859.861 586.734 853.03 586.114 845.142C585.219 833.762 588.158 820.612 595.48 808.61C602.802 796.607 612.848 788.471 622.91 784.822C632.001 781.526 640.777 781.959 647.884 785.958ZM651.901 780.172C632.717 768.469 605.352 779.015 589.76 804.574C573.665 830.958 576.212 863.35 595.448 876.922C614.684 890.494 643.326 880.107 659.421 853.723C675.516 827.338 672.969 794.947 653.733 781.375C653.5 781.211 653.266 781.05 653.03 780.892C652.851 780.532 652.667 780.178 652.478 779.83L651.901 780.172ZM656.785 794.162C657.218 798.828 656.781 803.714 655.16 808.433C651.672 818.588 642.943 827.301 627.197 831.42C615.279 835.922 609.864 841.734 606.396 848.458C604.59 851.959 603.264 855.803 601.872 860.15C601.655 860.826 601.437 861.516 601.215 862.216C600.384 864.837 599.503 867.617 598.472 870.493C598.677 870.647 598.884 870.798 599.093 870.946C606.545 876.204 616.216 877.121 626.271 873.475C636.333 869.826 646.379 861.69 653.701 849.687C661.023 837.685 663.962 824.535 663.067 813.155C662.483 805.727 660.304 799.236 656.785 794.162Z" fill="black"/>
<g opacity="0.4">
<path d="M183.763 956.47C170.639 940.694 170.944 914.57 184.753 898.117C198.561 881.664 220.392 881.413 233.517 897.189C237.167 901.576 239.724 904.662 241.825 908.125C243.875 911.505 245.542 915.338 247.177 921.167C250.361 932.519 253.286 950.863 258.659 986.93C228.332 980.113 213.007 976.535 203.57 972.728C198.73 970.775 195.577 968.81 192.8 966.385C189.953 963.897 187.415 960.859 183.763 956.47Z" stroke="black" stroke-width="7"/>
<path d="M235.394 959.517L185.717 898.22" stroke="black" stroke-width="4"/>
<path d="M221.392 941.63L216.655 967.609" stroke="black" stroke-width="4"/>
<path d="M221.392 941.63L243.121 936.076" stroke="black" stroke-width="4"/>
<path d="M214.595 933.46L205.007 965.22" stroke="black" stroke-width="4"/>
<path d="M215.036 932.934L241.617 921.599" stroke="black" stroke-width="4"/>
<path d="M206.932 925.305L195.138 959.693" stroke="black" stroke-width="4"/>
<path d="M207.815 924.254L236.601 910.291" stroke="black" stroke-width="4"/>
<path d="M199.711 916.624L186.153 953.115" stroke="black" stroke-width="4"/>
<path d="M200.593 915.573L231.143 899.508" stroke="black" stroke-width="4"/>
<path d="M185.741 896.665C179.172 894.346 165.058 885.188 171.328 879.341" stroke="black" stroke-width="7"/>
</g>
<g opacity="0.4">
<path d="M431.93 833.215C412.605 831.796 395.702 813.042 394.898 790.59C394.094 768.138 409.739 751.774 429.064 753.194C434.533 753.595 438.335 753.883 442.051 754.777C445.668 755.646 449.317 757.124 454.254 760.059C463.913 765.803 477.951 776.774 505.363 798.687C479.079 816.674 465.749 825.645 456.512 830.009C451.794 832.237 448.292 833.186 444.775 833.529C441.157 833.883 437.401 833.617 431.93 833.215Z" stroke="black" stroke-width="7"/>
<path d="M470.871 796.522L395.513 789.93" stroke="black" stroke-width="4"/>
<path d="M449.235 794.227L462.708 816.384" stroke="black" stroke-width="4"/>
<path d="M449.235 794.227L461.188 773.937" stroke="black" stroke-width="4"/>
<path d="M439.065 793.48L452.816 823.42" stroke="black" stroke-width="4"/>
<path d="M439.04 792.773L450.714 764.701" stroke="black" stroke-width="4"/>
<path d="M428.285 793.395L442.163 826.871" stroke="black" stroke-width="4"/>
<path d="M428.235 791.98L439.781 760.37" stroke="black" stroke-width="4"/>
<path d="M417.48 792.601L431.459 828.907" stroke="black" stroke-width="4"/>
<path d="M417.429 791.186L428.875 756.747" stroke="black" stroke-width="4"/>
<path d="M394.522 788.798C388.313 792.07 372.263 796.109 372.956 787.215" stroke="black" stroke-width="7"/>
</g>
<path opacity="0.4" d="M48.9425 958.5C38.5657 907.455 31.5904 821.46 52.8149 757.5C65.3394 719.758 98.2409 677.188 135.5 666.5" stroke="black" stroke-width="4" stroke-dasharray="8 8"/>
<path opacity="0.4" d="M1390 612C1285.39 596.081 1324.07 716.193 1242 783.5C1179.72 834.577 967.331 805.324 1035.5 951.5" stroke="black" stroke-width="4" stroke-dasharray="8 8"/>
<path opacity="0.2" d="M636 570C644.707 503.17 747.728 470.276 814.5 422C901.095 359.392 951.612 290.5 913.5 290.5C780.5 290.5 662.473 206.471 511.5 265" stroke="black" stroke-width="4" stroke-dasharray="8 8"/>
</g>
<defs>
<clipPath id="clip0_1_11">
<rect width="1440" height="1024" fill="white"/>
</clipPath>
</defs>
</svg>
