<svg width="245" height="276" viewBox="0 0 245 276" fill="none" xmlns="http://www.w3.org/2000/svg">
<path d="M73.5169 273.5L23.0988 40.5H222.901L172.483 273.5H123H73.5169Z" fill="#F7DAB4" stroke="black" stroke-width="5"/>
<path d="M30.5869 87.0008H215.5L191.6 197L54.5951 198.001L30.5869 87.0008Z" fill="#4F3E2A"/>
<circle cx="122.5" cy="140.5" r="43.5" fill="#B7723B"/>
<path d="M26.9487 28.0887C27.9583 27.3801 29.1618 27 30.3952 27H61.25H122.5H183.75H214.605C215.838 27 217.042 27.3801 218.051 28.0887L229.451 36.0887C234.25 39.4563 231.867 47 226.005 47H18.9952C13.1326 47 10.7497 39.4563 15.5487 36.0887L26.9487 28.0887Z" fill="#45413E"/>
<path d="M140 140.5C140 155.688 140 168 122.5 168C105 168 105 155.688 105 140.5C105 125.312 105 113 122.5 113C140 113 140 125.312 140 140.5Z" fill="#38220F"/>
<path d="M121.115 117C143.151 131.328 116.707 149.426 121.115 163C105.689 151.689 131.031 126.803 121.115 117Z" fill="white" stroke="#38220F"/>
<rect opacity="0.8" x="30" y="28" width="35" height="3" rx="1.5" fill="#D9D9D9"/>
<path d="M32 23C32 19.134 35.134 16 39 16H206C209.866 16 213 19.134 213 23V27H32V23Z" fill="#55504D"/>
<path d="M39 8C39 3.58172 42.5817 0 47 0H198C202.418 0 206 3.58172 206 8V16H39V8Z" fill="#45413E"/>
<rect opacity="0.8" x="44" y="3" width="35" height="4" rx="2" fill="#D9D9D9"/>
<rect opacity="0.8" x="85" y="3" width="13" height="4" rx="2" fill="#D9D9D9"/>
</svg>
